<mxfile host="app.diagrams.net" agent="Mozilla/5.0 (X11; Ubuntu; Linux x86_64; rv:141.0) Gecko/20100101 Firefox/141.0" version="28.1.0">
  <diagram name="Page-1" id="xIOkTCL3K24IWR9tix57">
    <mxGraphModel dx="548" dy="822" grid="1" gridSize="10" guides="1" tooltips="1" connect="1" arrows="1" fold="1" page="1" pageScale="1" pageWidth="827" pageHeight="1169" math="0" shadow="0">
      <root>
        <mxCell id="0" />
        <mxCell id="1" style="" parent="0" />
        <mxCell id="3SZMAM52sG9_Gdmyh299-129" value="" style="rounded=1;whiteSpace=wrap;html=1;shadow=0;treeFolding=0;treeMoving=0;fixDash=0;collapsible=0;recursiveResize=1;expand=1;backgroundOutline=0;movableLabel=0;autosize=0;fixedWidth=0;comic=0;fontColor=default;strokeColor=default;" parent="1" vertex="1">
          <mxGeometry x="240" y="470" width="500" height="430" as="geometry" />
        </mxCell>
        <mxCell id="3SZMAM52sG9_Gdmyh299-130" value="" style="rounded=1;whiteSpace=wrap;html=1;shadow=0;treeFolding=0;treeMoving=0;fixDash=0;collapsible=0;recursiveResize=1;expand=1;backgroundOutline=0;movableLabel=0;autosize=0;fixedWidth=0;comic=0;fontColor=default;strokeColor=default;" parent="1" vertex="1">
          <mxGeometry x="250" y="480" width="480" height="400" as="geometry" />
        </mxCell>
        <mxCell id="3SZMAM52sG9_Gdmyh299-131" value="" style="rounded=1;whiteSpace=wrap;html=1;shadow=0;glass=0;perimeterSpacing=1;fontColor=default;strokeColor=default;" parent="1" vertex="1">
          <mxGeometry x="310" y="490" width="412.5" height="370" as="geometry" />
        </mxCell>
        <mxCell id="3SZMAM52sG9_Gdmyh299-133" value="" style="ellipse;shape=cloud;whiteSpace=wrap;html=1;rotation=0;dashed=1;dashPattern=8 8;shadow=0;fontColor=default;strokeColor=default;" parent="1" vertex="1">
          <mxGeometry x="290" y="460" width="426.25" height="347.5" as="geometry" />
        </mxCell>
        <mxCell id="NnatkJBT9xsz4FV3scjZ-47" style="edgeStyle=orthogonalEdgeStyle;rounded=0;orthogonalLoop=1;jettySize=auto;html=1;exitX=0.5;exitY=1;exitDx=0;exitDy=0;entryX=0.5;entryY=0;entryDx=0;entryDy=0;startArrow=classic;startFill=1;" parent="1" edge="1">
          <mxGeometry relative="1" as="geometry">
            <mxPoint x="503.1300000000001" y="918.75" as="targetPoint" />
          </mxGeometry>
        </mxCell>
        <mxCell id="3SZMAM52sG9_Gdmyh299-145" value="&lt;div&gt;Hardware&lt;/div&gt;" style="text;html=1;align=center;verticalAlign=middle;resizable=0;points=[];autosize=1;strokeColor=none;fillColor=none;shadow=0;fontColor=default;" parent="1" vertex="1">
          <mxGeometry x="544" y="879" width="80" height="30" as="geometry" />
        </mxCell>
        <mxCell id="3SZMAM52sG9_Gdmyh299-146" value="Host OS" style="text;html=1;align=center;verticalAlign=middle;resizable=0;points=[];autosize=1;strokeColor=none;fillColor=none;shadow=0;fontColor=default;" parent="1" vertex="1">
          <mxGeometry x="534" y="859" width="70" height="30" as="geometry" />
        </mxCell>
        <mxCell id="3SZMAM52sG9_Gdmyh299-149" value="&lt;div&gt;Docker Engine&lt;/div&gt;" style="text;html=1;align=center;verticalAlign=middle;resizable=0;points=[];autosize=1;strokeColor=none;fillColor=none;shadow=0;fontColor=default;" parent="1" vertex="1">
          <mxGeometry x="524" y="837" width="100" height="30" as="geometry" />
        </mxCell>
        <mxCell id="NnatkJBT9xsz4FV3scjZ-24" style="edgeStyle=orthogonalEdgeStyle;rounded=0;orthogonalLoop=1;jettySize=auto;html=1;exitX=0.5;exitY=1;exitDx=0;exitDy=0;entryX=0.5;entryY=0;entryDx=0;entryDy=0;strokeColor=default;fontColor=default;" parent="1" source="3SZMAM52sG9_Gdmyh299-159" target="NnatkJBT9xsz4FV3scjZ-18" edge="1">
          <mxGeometry relative="1" as="geometry" />
        </mxCell>
        <mxCell id="3SZMAM52sG9_Gdmyh299-159" value="&lt;font style=&quot;font-size: 11px;&quot;&gt;Dispositivo Virtual 1&lt;/font&gt;" style="rhombus;whiteSpace=wrap;html=1;shadow=0;fontColor=default;strokeColor=default;" parent="1" vertex="1">
          <mxGeometry x="326" y="573.89" width="87.5" height="72.22" as="geometry" />
        </mxCell>
        <mxCell id="NnatkJBT9xsz4FV3scjZ-1" value="Telegraf" style="ellipse;whiteSpace=wrap;html=1;aspect=fixed;shadow=0;fontSize=10;strokeColor=default;fontColor=default;" parent="1" vertex="1">
          <mxGeometry x="259" y="780" width="40" height="40" as="geometry" />
        </mxCell>
        <mxCell id="NnatkJBT9xsz4FV3scjZ-25" style="edgeStyle=orthogonalEdgeStyle;rounded=0;orthogonalLoop=1;jettySize=auto;html=1;exitX=0.5;exitY=1;exitDx=0;exitDy=0;entryX=0.5;entryY=0;entryDx=0;entryDy=0;strokeColor=default;fontColor=default;" parent="1" source="NnatkJBT9xsz4FV3scjZ-2" target="NnatkJBT9xsz4FV3scjZ-20" edge="1">
          <mxGeometry relative="1" as="geometry" />
        </mxCell>
        <mxCell id="NnatkJBT9xsz4FV3scjZ-2" value="&lt;font style=&quot;font-size: 11px;&quot;&gt;Dispositivo Virtual 2&lt;/font&gt;" style="rhombus;whiteSpace=wrap;html=1;shadow=0;fontColor=default;strokeColor=default;" parent="1" vertex="1">
          <mxGeometry x="395" y="610" width="87.5" height="72.22" as="geometry" />
        </mxCell>
        <mxCell id="NnatkJBT9xsz4FV3scjZ-65" style="edgeStyle=orthogonalEdgeStyle;rounded=0;orthogonalLoop=1;jettySize=auto;html=1;exitX=0.5;exitY=1;exitDx=0;exitDy=0;entryX=0.5;entryY=0;entryDx=0;entryDy=0;strokeColor=default;fontColor=default;" parent="1" edge="1">
          <mxGeometry relative="1" as="geometry">
            <mxPoint x="508" y="712.22" as="sourcePoint" />
            <mxPoint x="508.99" y="738.75" as="targetPoint" />
          </mxGeometry>
        </mxCell>
        <mxCell id="NnatkJBT9xsz4FV3scjZ-3" value="&lt;font style=&quot;font-size: 11px;&quot;&gt;Dispositivo Virtual 3&lt;/font&gt;" style="rhombus;whiteSpace=wrap;html=1;shadow=0;fontColor=default;strokeColor=default;" parent="1" vertex="1">
          <mxGeometry x="465.25" y="640" width="87.5" height="72.22" as="geometry" />
        </mxCell>
        <mxCell id="NnatkJBT9xsz4FV3scjZ-29" style="edgeStyle=orthogonalEdgeStyle;rounded=0;orthogonalLoop=1;jettySize=auto;html=1;exitX=0.5;exitY=1;exitDx=0;exitDy=0;entryX=0.5;entryY=0;entryDx=0;entryDy=0;strokeColor=default;fontColor=default;" parent="1" source="NnatkJBT9xsz4FV3scjZ-4" target="NnatkJBT9xsz4FV3scjZ-19" edge="1">
          <mxGeometry relative="1" as="geometry" />
        </mxCell>
        <mxCell id="NnatkJBT9xsz4FV3scjZ-4" value="&lt;font style=&quot;font-size: 11px;&quot;&gt;Dispositivo Virtual 5&lt;/font&gt;" style="rhombus;whiteSpace=wrap;html=1;shadow=0;fontColor=default;strokeColor=default;" parent="1" vertex="1">
          <mxGeometry x="590" y="567.78" width="87.5" height="72.22" as="geometry" />
        </mxCell>
        <mxCell id="NnatkJBT9xsz4FV3scjZ-28" style="edgeStyle=orthogonalEdgeStyle;rounded=0;orthogonalLoop=1;jettySize=auto;html=1;exitX=0.5;exitY=1;exitDx=0;exitDy=0;entryX=0.5;entryY=0;entryDx=0;entryDy=0;strokeColor=default;fontColor=default;" parent="1" source="NnatkJBT9xsz4FV3scjZ-5" target="NnatkJBT9xsz4FV3scjZ-21" edge="1">
          <mxGeometry relative="1" as="geometry" />
        </mxCell>
        <mxCell id="NnatkJBT9xsz4FV3scjZ-5" value="&lt;div&gt;&lt;font style=&quot;font-size: 11px;&quot;&gt;Dispositivo Virtual 4&lt;/font&gt;&lt;/div&gt;" style="rhombus;whiteSpace=wrap;html=1;shadow=0;fontColor=default;strokeColor=default;" parent="1" vertex="1">
          <mxGeometry x="536.5" y="610" width="87.5" height="72.22" as="geometry" />
        </mxCell>
        <mxCell id="NnatkJBT9xsz4FV3scjZ-17" value="Telegraf" style="ellipse;whiteSpace=wrap;html=1;aspect=fixed;shadow=0;fontSize=10;strokeColor=default;fontColor=default;" parent="1" vertex="1">
          <mxGeometry x="489.99" y="738.75" width="40" height="40" as="geometry" />
        </mxCell>
        <mxCell id="NnatkJBT9xsz4FV3scjZ-18" value="Telegraf" style="ellipse;whiteSpace=wrap;html=1;aspect=fixed;shadow=0;fontSize=10;strokeColor=default;fontColor=default;" parent="1" vertex="1">
          <mxGeometry x="350" y="672.22" width="40" height="40" as="geometry" />
        </mxCell>
        <mxCell id="NnatkJBT9xsz4FV3scjZ-19" value="Telegraf" style="ellipse;whiteSpace=wrap;html=1;aspect=fixed;shadow=0;fontSize=10;strokeColor=default;fontColor=default;" parent="1" vertex="1">
          <mxGeometry x="613.75" y="678.33" width="40" height="40" as="geometry" />
        </mxCell>
        <mxCell id="NnatkJBT9xsz4FV3scjZ-20" value="Telegraf" style="ellipse;whiteSpace=wrap;html=1;aspect=fixed;shadow=0;fontSize=10;strokeColor=default;fontColor=default;" parent="1" vertex="1">
          <mxGeometry x="418.75" y="698.75" width="40" height="40" as="geometry" />
        </mxCell>
        <mxCell id="NnatkJBT9xsz4FV3scjZ-21" value="Telegraf" style="ellipse;whiteSpace=wrap;html=1;aspect=fixed;shadow=0;fontSize=10;strokeColor=default;fontColor=default;" parent="1" vertex="1">
          <mxGeometry x="560.25" y="718.33" width="40" height="40" as="geometry" />
        </mxCell>
        <mxCell id="NnatkJBT9xsz4FV3scjZ-45" style="edgeStyle=orthogonalEdgeStyle;rounded=0;orthogonalLoop=1;jettySize=auto;html=1;exitX=0.5;exitY=0;exitDx=0;exitDy=0;entryX=0.5;entryY=1;entryDx=0;entryDy=0;" parent="1" edge="1">
          <mxGeometry relative="1" as="geometry">
            <mxPoint x="639" y="925" as="targetPoint" />
          </mxGeometry>
        </mxCell>
        <mxCell id="NnatkJBT9xsz4FV3scjZ-66" style="rounded=0;orthogonalLoop=1;jettySize=auto;html=1;exitX=1;exitY=0;exitDx=0;exitDy=0;entryX=0;entryY=0.5;entryDx=0;entryDy=0;flowAnimation=0;curved=0;dashed=1;startArrow=classic;startFill=1;dashPattern=8 8;" parent="1" edge="1">
          <mxGeometry relative="1" as="geometry">
            <mxPoint x="425.6066017177982" y="558.3933982822018" as="sourcePoint" />
          </mxGeometry>
        </mxCell>
        <mxCell id="NnatkJBT9xsz4FV3scjZ-67" style="rounded=0;orthogonalLoop=1;jettySize=auto;html=1;exitX=1;exitY=0;exitDx=0;exitDy=0;entryX=0;entryY=1;entryDx=0;entryDy=0;flowAnimation=0;curved=0;dashed=1;startArrow=classic;startFill=1;dashPattern=8 8;" parent="1" edge="1">
          <mxGeometry relative="1" as="geometry">
            <mxPoint x="483.6875" y="547" as="targetPoint" />
          </mxGeometry>
        </mxCell>
        <mxCell id="NnatkJBT9xsz4FV3scjZ-68" style="rounded=0;orthogonalLoop=1;jettySize=auto;html=1;exitX=0.5;exitY=0;exitDx=0;exitDy=0;entryX=0.5;entryY=1;entryDx=0;entryDy=0;flowAnimation=0;curved=0;dashed=1;startArrow=classic;startFill=1;dashPattern=8 8;" parent="1" edge="1">
          <mxGeometry relative="1" as="geometry">
            <mxPoint x="502.125" y="562" as="targetPoint" />
          </mxGeometry>
        </mxCell>
        <mxCell id="NnatkJBT9xsz4FV3scjZ-69" style="rounded=0;orthogonalLoop=1;jettySize=auto;html=1;exitX=0;exitY=0;exitDx=0;exitDy=0;entryX=1;entryY=1;entryDx=0;entryDy=0;flowAnimation=0;curved=0;dashed=1;startArrow=classic;startFill=1;dashPattern=8 8;" parent="1" edge="1">
          <mxGeometry relative="1" as="geometry">
            <mxPoint x="520.5625" y="547" as="targetPoint" />
          </mxGeometry>
        </mxCell>
        <mxCell id="NnatkJBT9xsz4FV3scjZ-70" style="rounded=0;orthogonalLoop=1;jettySize=auto;html=1;exitX=0;exitY=0;exitDx=0;exitDy=0;entryX=1;entryY=0.5;entryDx=0;entryDy=0;flowAnimation=0;curved=0;dashed=1;startArrow=classic;startFill=1;dashPattern=8 8;" parent="1" edge="1">
          <mxGeometry relative="1" as="geometry">
            <mxPoint x="539" y="532" as="targetPoint" />
          </mxGeometry>
        </mxCell>
      </root>
    </mxGraphModel>
  </diagram>
</mxfile>
